<?xml version="1.0" encoding="UTF-8" standalone="no"?>
<svg xmlns:rdf="http://www.w3.org/1999/02/22-rdf-syntax-ns#" xmlns="http://www.w3.org/2000/svg" height="700" width="350" xmlns:cc="http://web.resource.org/cc/" xmlns:dc="http://purl.org/dc/elements/1.1/" xmlns:sodipodi="http://inkscape.sourceforge.net/DTD/sodipodi-0.dtd">
 <g fill="#fff">
  <path d="m112.76 23.312c-0.71-1.2-7.72-4.029-11.66-5.315-3.942-1.286-7.256-2.773-11.999-2.402-4.743 0.372-12.771 2.144-16.456 4.63-3.686 2.486-4.885 5.772-5.657 10.286-0.771 4.515-0.599 9.458 1.029 16.801 1.629 7.343 4.086 14.772 8.743 27.257 4.657 12.486 14.285 36.231 19.199 47.661 4.911 11.42 7.771 14.05 10.291 20.91 2.51 6.86 4.57 14 4.8 20.23 0.22 6.23-1.03 12.28-3.43 17.14s-7.12 10-10.975 12c-3.857 2-8.8 1.57-12.171 0s-5.715-5-8.058-9.43-3.114-14-6-17.14-8.658-2.31-11.315-1.71-5.285 1.6-4.627 5.31c0.657 3.71 3.686 11.46 8.572 16.97 4.886 5.52 12.8 13.34 20.743 16.11 7.943 2.78 19.461 3.26 26.911 0.52 7.46-2.74 14.4-9.72 17.83-16.97 3.43-7.26 3.72-18.6 2.74-26.57-0.97-7.98-4.97-13.15-8.57-21.26-3.6-8.12-7.94-15.6-13.03-27.43-5.08-11.828-13.711-33.457-17.482-43.543s-4.456-10.828-5.142-16.971c-0.685-6.143-0.571-15.513 1.029-19.885 1.6-4.371 5.684-5.458 8.57-6.343 2.885-0.886 6.055 1.171 8.745 1.028 2.68-0.142 8.08-0.684 7.37-1.884"/>
  <path d="m197.7 13.711c2.67-1.471-3.5-4.9704-6.51-6.942-3.02-1.9716-4.85-4.6444-11.58-4.8872-6.72-0.2427-21.65 2.0018-28.79 3.4305-7.15 1.4287-11.15 3.0276-14.06 5.1417-2.92 2.114-3.09 3.258-3.43 7.543-0.34 4.286 0.51 2.514 1.37 18.171s2.63 56.743 3.77 75.772c1.15 19.03 2.35 29.66 3.09 38.4s1.03 10.8 1.37 14.06c0.34 3.25 0.54 3.47 0.68 5.48 0.15 2.02-0.11 4.15 0.18 6.6 0.28 2.46 0.71 5.94 1.54 8.14s0.66 3.39 3.43 5.06 9.31 4.64 13.2 4.97c3.88 0.33 3.86-1.21 10.11-3 6.26-1.78 19.37-6.2 27.43-7.71s18.8 0.06 20.91-1.37c2.12-1.43-3.48-5.26-8.22-7.2-4.75-1.95-12.66-4.62-20.23-4.46s-20.16 4.75-25.2 5.4c-5.04 0.66-4.09 0.53-5.06-1.46-0.97-1.98-0.21-4.65-0.77-10.45s-1.77-15.75-2.57-24.34c-0.8-8.6-1.85-18.53-2.23-27.26-0.39-8.73-0.91-19.289-0.09-25.118 0.83-5.829 0.1-4.987 5.06-9.858s18.52-15.627 24.69-19.37 11.65-1.544 12.34-3.087c0.68-1.542-3.92-4.899-8.23-6.17s-12.18-2.957-17.66-1.457c-5.47 1.5-12.27 11.914-15.17 10.457s-2.08-13.2-2.23-19.2c-0.14-6-2.01-12.9 1.38-16.8 3.38-3.9 12.02-5.187 18.94-6.601 6.91-1.415 19.87-0.414 22.54-1.885"/>
  <path d="m279.73 2.9093c-6.17 0.9142-20.69 6.4584-26.74 7.8867-6.06 1.429-6.97-0.229-9.6 0.685-2.63 0.915-2.29 2.858-6.17 4.801-3.89 1.943-12.12 4.684-17.15 6.856-5.02 2.171-11.65 4.059-13.02 6.173-1.38 2.114 2.81 5.24 4.79 6.512 1.99 1.271 3.36 1.7 7.12 1.115s12.4-4.913 15.43-4.627c3.02 0.285 2.33-0.987 2.74 6.341 0.41 7.329-0.24 27.487-0.26 37.63-0.01 10.143-0.45 10.657 0.18 23.228 0.62 12.57 2.77 39.69 3.59 52.2 0.83 12.51 0.95 18.03 1.38 22.88 0.43 4.86 0.11 4.26 1.2 6.26 1.08 2 3.41 3.46 5.31 5.74 1.9 2.29 3.61 6.29 6.08 7.98 2.48 1.68 6.49 3.01 8.75 2.14 2.25-0.87 3.86-5.1 4.8-7.37s1-4.43 0.86-6.26c-0.15-1.83-1.22-1.94-1.72-4.71-0.5-2.78-0.5-2.05-1.28-11.92-0.79-9.87-2.41-34.06-3.43-47.31-1.03-13.26-2.4-21.831-2.75-32.231-0.34-10.4 0.56-21.327 0.69-30.17s-0.09-17.102 0.08-22.887c0.18-5.786-1.32-8.784 0.95-11.827s8.57-4.673 12.68-6.431c4.12-1.757 8.23-3.027 12-4.113 3.78-1.085 10-1.373 10.63-2.4011 0.63-1.0285-4-2.7406-6.85-3.7691-2.86-1.0284-4.12-3.3158-10.29-2.4015"/>
  <path d="m92.2 450.38c-0.936-3.62-1.561-4.99-1.499-15.34 0.062-10.36 1.622-27.88 1.872-46.78s-0.872-50.21-0.373-66.61 2.588-22.67 3.367-31.81c0.78-9.14-0.467-18.55 1.31-23.01 1.778-4.46 5.983-4.4 9.353-3.74 3.37 0.65 8.89 4.02 10.85 7.67 1.97 3.65 0.22 8.79 0.94 14.22 0.72 5.42 1.37 10.29 3.37 18.33 1.99 8.05 5.61 18.4 8.61 29.94 2.99 11.54 7.61 32.12 9.35 39.29 1.75 7.18 0.31 7.8 1.12 3.75 0.81-4.06 3.25-19.96 3.75-28.07 0.49-8.11-0.94-14.09-0.75-20.58 0.18-6.49 1.93-12.35 1.87-18.34s-2.72-8.7-2.25-17.59c0.47-8.88 2.15-28.78 5.05-35.73 2.91-6.96 9.05-5.8 12.35-5.99 3.31-0.19 6.09 0.96 7.49 4.86s1.34 11.01 0.93 18.53c-0.4 7.51-2.58 16.03-3.36 26.57s-1.09 27.13-1.31 36.67 0.59 12.47 0 20.58c-0.6 8.11-3.28 21.33-3.56 28.07s1.31 4.3 1.87 12.35c0.56 8.04 1.31 26.69 1.5 35.92s-0.31 15.16-0.37 19.46c-0.07 4.31-0.44 4.27 0 6.36 0.43 2.09 4.17 5.37 2.61 6.18-1.55 0.81-8.91 0.16-11.97-1.31s-4.86-4.24-6.36-7.49c-1.5-3.24-1.25-8.54-2.62-11.97s-4.62-5.86-5.62-8.61c-0.99-2.74 0.57-4.93-0.37-7.86-0.93-2.93-3.24-4.67-5.24-9.73-2-5.05-4.8-15.21-6.73-20.58-1.94-5.36-3.5-6.49-4.87-11.6s-2.28-13.35-3.37-19.08c-1.09-5.74-2.62-10.83-3.18-15.35s0.41-8.67-0.19-11.79c-0.59-3.11-2.68-9.07-3.36-6.92-0.69 2.15-0.5 12.54-0.75 19.84-0.25 7.29-0.44 11.97-0.75 23.95-0.31 11.97-0.69 37.36-1.12 47.9-0.44 10.54-1.19 10.32-1.5 15.34s-0.5 11.29-0.37 14.78c0.12 3.49 2.12 5.21 1.12 6.18-1 0.96-4.99 0.37-7.11-0.38-2.121-0.75-3.993-2.37-5.614-4.12-1.622-1.74-3.18-2.74-4.116-6.36z"/>
  <path d="m214.57 245.31c-8.2 1.81-17.31 4.4-20.96 6.36-3.65 1.97-0.62 2.37-0.93 5.43-0.32 3.06-0.54 8.45-0.94 12.91-0.41 4.46-0.94 10.23-1.5 13.85-0.56 3.61-1.68 1.62-1.87 7.85-0.19 6.24 1 16.6 0.75 29.57s-1.56 33.12-2.24 48.27c-0.69 15.16-1.69 31.25-1.88 42.66-0.18 11.42 0.63 20.15 0.75 25.82 0.13 5.68 0.5 6.18 0 8.24s-3.24 2.59-2.99 4.11c0.25 1.53 1.68 3.87 4.49 5.06 2.81 1.18 8.73 2.27 12.35 2.05 3.62-0.21 4.24-1.96 9.35-3.36 5.12-1.41 15.29-3.68 21.34-5.06 6.05-1.37 14.15-1.96 14.96-3.18 0.81-1.21-6.04-3.3-10.1-4.11-4.05-0.81-8.61-1.06-14.22-0.75s-16.15 3.55-19.46 2.62c-3.3-0.94-0.69-1.25-0.37-8.24 0.31-6.98 1.87-24.51 2.24-33.68 0.37-9.16-0.5-14.65 0-21.33 0.5-6.67 2.31-13.72 3-18.71 0.68-4.99-2.19-8.54 1.12-11.22 3.3-2.68 13.85-3.43 18.71-4.87 4.86-1.43 6.24-2.87 10.48-3.74s13.16-0.56 14.97-1.5c1.8-0.93-2.62-3.12-4.12-4.11-1.5-1-2.5-1.31-4.87-1.87-2.37-0.57-3.8-2.06-9.35-1.5s-19.77 5.67-23.95 4.86-0.94-3.43-1.12-9.73c-0.19-6.3-0.25-21.7 0-28.06s1.09-5.21 1.49-10.11c0.41-4.89 0.5-14.22 0.94-19.27s-0.84-8.2 1.68-11.04c2.53-2.84 8.05-4.18 13.47-5.99 5.43-1.81 14.38-4.39 19.09-4.86s7.02 2.53 9.17 2.06 5.61-3.22 3.74-4.87-7.77-4.96-14.97-5.05-20.05 2.68-28.25 4.49z"/>
  <path d="m287.91 217.81c-2.12-0.63-3.27-0.57-5.42 0.18s-5.58 1.25-7.49 4.31c-1.9 3.05-2.87 10.63-3.93 14.03s-1.9 3.37-2.43 6.36-1.78 8.36-0.75 11.6 4.68 6.42 6.93 7.86c2.24 1.43 4.77 2.53 6.55 0.75 1.77-1.78 3.33-8.45 4.11-11.42 0.78-2.96-0.34-2.21 0.56-6.36 0.91-4.15 3.31-14.97 4.87-18.52 1.56-3.56 3.77-2 4.49-2.81s1.06-1.06-0.19-2.06c-1.25-0.99-5.18-3.3-7.3-3.92z"/>
  <path d="m328.71 250.18c-4.62-0.88-13.01-2.5-17.97-2.25s-8.6 1.56-11.78 3.74c-3.19 2.19-6.33 4.12-7.3 9.36s-0.56 15.15 1.49 22.08c2.06 6.92 7.49 11.97 10.86 19.46 3.37 7.48 6.73 15.21 9.35 25.44s5.37 24.52 6.36 35.93c1 11.41 1.13 23.7-0.37 32.56-1.5 8.85-4.99 15.03-8.61 20.58-3.61 5.55-9.29 10.35-13.09 12.72-3.81 2.37-6.55 3.62-9.73 1.5s-7.42-8.67-9.36-14.22c-1.93-5.55-0.44-15.16-2.24-19.09-1.81-3.93-5.93-3.93-8.61-4.49s-5.62-0.18-7.49 1.12c-1.87 1.31-3.49 4.46-3.74 6.74s1.59 4.4 2.25 6.92c0.65 2.53-0.19 4.28 1.68 8.24s5.33 11.26 9.54 15.53 9.73 8.1 15.72 10.1 14.72 2.12 20.21 1.87 8.92-1.5 12.72-3.37c3.81-1.87 6.86-4.92 10.11-7.85 3.24-2.94 6.86-5.87 9.35-9.73 2.5-3.87 4.55-8.14 5.61-13.48 1.07-5.33 0.94-12.59 0.75-18.52-0.18-5.92-0.87-10.32-1.87-17.03-1-6.7-2.24-14.16-4.11-23.2-1.88-9.04-4.25-21.83-7.11-31.06-2.87-9.23-7.43-17.71-10.11-24.32s-4.99-10.29-5.99-15.35c-0.99-5.05-0.99-11.16 0-14.97 1-3.8 3.06-7.17 5.99-7.85 2.93-0.69 7.11 3.12 11.6 3.74s14.41 1.31 15.35 0c0.93-1.31-6.49-6.05-9.73-7.86-3.25-1.81-5.12-2.12-9.73-2.99z"/>
  <path d="m21.02 268.89c-1.658 2.04-4.9 8.07-6.785 14.33-1.884 6.25-3.19 15.37-4.5221 23.21-1.3316 7.84-2.3617 16.23-3.4672 23.82-1.1054 7.59-2.1854 14.95-3.1653 21.71s-2.2616 10.8-2.7139 18.84c-0.45235 8.05-0.52759 21.39-0.00003 29.4 0.52756 8.02 1.4317 12.59 3.1653 18.69 1.7336 6.11 4.6483 13.07 7.2362 17.94 2.588 4.88 4.497 8.77 8.291 11.31s9.398 3.62 14.473 3.92 11.908-0.63 15.979-2.11c4.07-1.48 5.906-3.27 8.443-6.78 2.538-3.52 4.948-9.48 6.783-14.33 1.834-4.85 3.242-10.27 4.223-14.77 0.98-4.5 1.608-6.36 1.658-12.21 0.051-5.85-0.628-16.23-1.357-22.91-0.728-6.69-1.633-9.12-3.015-17.19s-3.291-21.53-5.276-31.21c-1.985-9.67-3.997-18.11-6.635-26.83s-7.008-19.75-9.194-25.48-2.012-6.76-3.922-8.89c-1.909-2.14-5.025-3.37-7.538-3.92-2.512-0.56-5.601 0.15-7.535 0.6s-3.945 0.78-4.071 2.11 1.355 1.83 3.315 5.88 6.71 11.84 8.444 18.39c1.734 6.56 0.93 16.13 1.96 20.96 1.03 4.82 2.889 2.69 4.221 7.99 1.331 5.3 2.387 15.28 3.769 23.82s3.467 18.61 4.522 27.43 2.11 18.29 1.808 25.48c-0.301 7.19-1.657 11.33-3.616 17.64-1.96 6.31-5.554 15.65-8.142 20.2s-5.325 6.68-7.386 7.08c-2.06 0.41-3.443-0.87-4.976-4.67-1.533-3.79-3.216-12.01-4.221-18.09s-1.883-10.45-1.808-18.39 1.28-21.06 2.26-29.25 2.463-12.79 3.619-19.9 2.335-17.03 3.315-22.76 1.534-8.77 2.564-11.61c1.031-2.84 3.014-2.51 3.617-5.42 0.603-2.92 0.553-7.84 0-12.07-0.552-4.22-1.456-8.29-3.315-13.26-1.859-4.98-6.005-13.47-7.84-16.58-1.834-3.12-1.507-4.15-3.165-2.12z" stroke="#fff" stroke-width="2px"/>
  <path d="m105.33 501.09c-4.57-1.28-8.489-1.71-14.469 0s-14.623 4.47-21.407 10.25-13.869 16.23-19.297 24.42c-5.427 8.2-10.001 15.83-13.267 24.73-3.267 8.89-5.929 19.24-6.331 28.64s1.557 19.55 3.919 27.74c2.361 8.19 5.327 14.27 10.252 21.41 4.924 7.13 11.934 15.77 19.296 21.4s17.236 9.53 24.874 12.37c7.638 2.83 15.3 3.94 20.96 4.67 5.65 0.73 11.63 0.57 12.96-0.3 1.33-0.88-2.39-2.99-4.97-4.98-2.59-1.98-7.97-5.63-10.56-6.93-2.59-1.31-3.31-0.46-4.97-0.91s-2.592-1.23-4.979-1.81c-2.387-0.57-5.201 1.81-9.346-1.66-4.146-3.46-11.483-13.14-15.528-19.14s-6.482-11.56-8.743-16.88c-2.261-5.33-3.568-10.76-4.824-15.08s-2.714-5.53-2.714-10.85c0-5.33 1.207-14.28 2.714-21.11 1.508-6.84 2.964-12.81 6.331-19.9 3.367-7.08 8.746-16.03 13.871-22.61 5.126-6.59 12.008-13.17 16.882-16.89 4.876-3.72 9.116-4.47 12.366-5.43 3.24-0.95 5.42 0.28 7.08-0.3s4.55-1.35 2.87-3.16c-1.69-1.81-8.39-6.41-12.97-7.69z"/>
  <path d="m181.16 478.63c-1.83-0.23-6.53-0.85-8.44 2.41-1.91 3.27-1.06 8.32-3.02 17.19s-6.3 25.57-8.74 36.03c-2.44 10.45-3.74 17.54-5.88 26.68-2.13 9.15-5.32 20.68-6.93 28.19s-2.24 13.19-2.72 16.89c-0.47 3.69 1.16 3.89-0.15 5.27-1.31 1.39-7.33 1.13-7.69 3.02-0.35 1.88 4.6 4.87 5.58 8.29s0.45 6.46 0.3 12.21-0.78 17.44-1.2 22.31c-0.43 4.88-0.81 3.67-1.36 6.94-0.55 3.26-1.41 9.72-1.96 12.66s-1.63 2.86-1.36 4.98c0.28 2.11 0.51 5.2 3.02 7.68 2.51 2.49 9.62 6.21 12.06 7.24s2.41-0.33 2.56-1.06c0.15-0.72-2.06-0.98-1.66-3.31 0.4-2.34 2.97-7.21 4.07-10.71 1.11-3.49 1.59-6.03 2.57-10.25s2.58-11.15 3.31-15.07 0.48-5.91 1.06-8.45c0.58-2.53 1.96-4.17 2.41-6.78s0-6.43 0.3-8.89c0.3-2.47 0.76-4 1.51-5.88 0.75-1.89-0.23-3.62 3.01-5.43s13.2-6.66 16.44-5.43 2.23 6.81 3.01 12.82c0.78 6 1.26 17.31 1.66 23.21 0.4 5.91 0.48 8.29 0.75 12.21 0.28 3.92 0.33 7.69 0.91 11.31s0.07 7.84 2.56 10.4c2.49 2.57 8.92 4.38 12.36 4.98 3.45 0.6 6.96 0.55 8.3-1.36 1.33-1.91 0-2.91-0.31-10.1-0.3-7.19-0.85-22.24-1.51-33.01-0.65-10.78-1.45-23.07-2.41-31.66-0.95-8.6-2.16-13.42-3.31-19.9-1.16-6.49-2.37-12.97-3.62-19-1.26-6.03-2.87-11.96-3.92-17.18-1.06-5.23-1.71-7.94-2.41-14.17-0.71-6.24-1.16-16.89-1.81-23.22s-1.56-10.25-2.11-14.77c-0.55-4.53-1.16-9.8-1.21-12.37-0.05-2.56 1.96-1.2 0.91-3.01-1.06-1.81-5.13-6.01-7.24-7.84s-4.62-3.22-5.43-3.17c-0.8 0.05 0.76-0.32 0.61 3.47-0.15 3.8-1.19 9.27-1.51 19.3-0.33 10.02-0.86 33.26-0.45 40.85 0.4 7.59 2.06-1.03 2.86 4.68 0.8 5.7 1.41 21.55 1.96 29.54s3.74 14.3 1.36 18.4c-2.39 4.09-12.87 6.9-15.68 6.17-2.81-0.72-1.61-4.54-1.21-10.55 0.4-6 2.44-18.46 3.62-25.47s2.26-12.27 3.47-16.59c1.2-4.32 3.09 0.46 3.77-9.34s0.05-39.85 0.3-49.45 1.43-6.16 1.2-8.14c-0.22-1.99-0.73-3.54-2.56-3.77z" stroke="#fff" stroke-width="2px"/>
  <path d="m250.66 476.37c-3.04 0.25-10.23 2.78-12.21 6.48-1.99 3.69-0.08 6.26 0.3 15.68 0.37 9.42 1.98 28.21 1.96 40.85-0.03 12.64-1.76 24.87-2.11 34.97-0.35 10.11 0.55 15.94 0 25.63-0.56 9.7-2.42 24.25-3.32 32.57-0.9 8.31-1.31 10.27-2.11 17.34-0.8 7.06-2.19 18.99-2.71 25.02-0.53 6.03-4.12 8.44-0.46 11.15 3.67 2.72 18.3 6.79 22.47 5.13s1.25-4.95 2.56-15.07c1.31-10.13 3.94-33.25 5.28-45.68 1.33-12.44 1.93-21.36 2.71-28.95s-1.26-12.03 1.96-16.58 11.56-6.41 17.34-10.7c5.78-4.3 12.38-9.03 17.33-15.08 4.95-6.06 9.32-15.33 12.36-21.26 3.05-5.92 5.91-8.39 5.88-14.32-0.02-5.93-3.34-15.8-6.02-21.25-2.69-5.46-5.33-8.04-10.11-11.46-4.77-3.42-11.86-6.81-18.54-9.05-6.68-2.23-16.13-3.49-21.56-4.37-5.42-0.88-11.4-2.84-11-0.9 0.4 1.93 9.24 10.68 13.42 12.51 4.17 1.83 8.09-1.96 11.6-1.51 3.52 0.46 6.54 0.91 9.5 4.22 2.96 3.32 6.86 10.4 8.29 15.68s1.58 10.28 0.3 15.98c-1.28 5.71-5.22 13.22-7.99 18.24-2.76 5.03-5.95 8.57-8.59 11.91s-5.38 6.89-7.24 8.14c-1.85 1.26-3.06 1.16-3.91-0.6-0.86-1.76-1.16-5.73-1.21-9.95s0.9-10.6 0.9-15.38c0-4.77-0.9-9.24-0.9-13.26s1.08-7.16 0.9-10.86c-0.17-3.69-1.81-7.69-1.96-11.3-0.15-3.62 1.54-7.92 1.06-10.41-0.48-2.48-2.56-3.09-3.92-4.52s-2.51-2.56-4.22-4.07-2.99-5.23-6.03-4.97z" stroke="#fff" stroke-width="2px"/>
 </g>
</svg>
