<?xml version="1.0" encoding="UTF-8" standalone="no"?>
<svg height="255" width="960" xmlns="http://www.w3.org/2000/svg">
 <path fill="#fff" d="m62.058 70.115c-0.714-1.2-7.716-4.029-11.659-5.315s-7.257-2.773-12-2.401c-4.743 0.371-12.771 2.144-16.457 4.63-3.685 2.486-4.885 5.771-5.656 10.286-0.771 4.514-0.6 9.457 1.029 16.8 1.629 7.345 4.086 14.775 8.743 27.255 4.657 12.49 14.285 36.23 19.199 47.66 4.915 11.43 7.772 14.06 10.286 20.91 2.515 6.86 4.573 14 4.801 20.23s-1.03 12.29-3.43 17.14c-2.401 4.86-7.115 10-10.972 12s-8.799 1.58-12.17 0c-3.372-1.57-5.715-5-8.058-9.43-2.343-4.42-3.114-13.99-6-17.14-2.886-3.14-8.658-2.31-11.315-1.71s-5.2847 1.6-4.6272 5.31c0.6575 3.72 3.6863 11.46 8.5722 16.97 4.886 5.52 12.8 13.35 20.743 16.12 7.942 2.77 19.456 3.25 26.913 0.51s14.401-9.71 17.83-16.97c3.428-7.26 3.714-18.6 2.742-26.57-0.971-7.97-4.972-13.14-8.572-21.26-3.6-8.11-7.943-15.6-13.029-27.43-5.085-11.82-13.714-33.45-17.485-43.54-3.772-10.09-4.457-10.83-5.142-16.971-0.686-6.142-0.571-15.513 1.029-19.884 1.6-4.372 5.684-5.458 8.569-6.344 2.886-0.886 6.057 1.171 8.743 1.029 2.686-0.143 8.087-0.685 7.373-1.885"/>
 <path fill="#fff" d="m147 60.515c2.67-1.471-3.5-4.971-6.52-6.943-3.01-1.971-4.84-4.644-11.57-4.887s-21.65 2.002-28.8 3.431c-7.138 1.428-11.139 3.027-14.054 5.141-2.914 2.115-3.087 3.258-3.43 7.544-0.343 4.285 0.515 2.513 1.373 18.17 0.857 15.657 2.628 56.739 3.771 75.769s2.344 29.66 3.087 38.4 1.028 10.8 1.37 14.06c0.343 3.26 0.542 3.47 0.685 5.49 0.143 2.01-0.112 4.14 0.173 6.6 0.286 2.45 0.713 5.94 1.541 8.14 0.829 2.2 0.659 3.38 3.43 5.06 2.774 1.67 9.314 4.64 13.204 4.97 3.88 0.33 3.85-1.22 10.11-3 6.26-1.79 19.37-6.2 27.43-7.72 8.06-1.51 18.8 0.06 20.91-1.37 2.12-1.43-3.48-5.26-8.23-7.2-4.74-1.94-12.65-4.61-20.22-4.46-7.58 0.16-20.16 4.75-25.2 5.41-5.05 0.65-4.09 0.52-5.06-1.46-0.97-1.99-0.22-4.66-0.77-10.46-0.56-5.8-1.78-15.74-2.58-24.34s-1.84-18.53-2.22-27.26c-0.39-8.73-0.92-19.29-0.09-25.11 0.83-5.83 0.1-4.99 5.06-9.86 4.95-4.87 18.51-15.63 24.69-19.37 6.17-3.75 11.65-1.55 12.34-3.09 0.68-1.54-3.92-4.899-8.23-6.17-4.32-1.271-12.19-2.956-17.66-1.456s-12.27 11.916-15.17 10.456-2.09-13.199-2.23-19.199-2.01-12.901 1.37-16.801c3.39-3.9 12.03-5.187 18.95-6.601 6.91-1.414 19.87-0.413 22.54-1.884z"/>
 <path fill="#fff" d="m229.03 49.713c-6.17 0.914-20.69 6.458-26.74 7.887-6.06 1.428-6.98-0.229-9.61 0.685-2.62 0.914-2.28 2.858-6.17 4.8-3.88 1.943-12.11 4.685-17.14 6.856s-11.65 4.059-13.03 6.173c-1.37 2.114 2.82 5.241 4.8 6.512 1.99 1.271 3.36 1.701 7.12 1.116 3.75-0.586 12.4-4.913 15.42-4.628 3.03 0.286 2.33-0.987 2.75 6.341 0.41 7.329-0.25 27.485-0.26 37.635-0.01 10.14-0.46 10.65 0.17 23.22 0.63 12.58 2.77 39.69 3.6 52.2 0.83 12.52 0.95 18.03 1.37 22.89 0.43 4.85 0.12 4.25 1.2 6.25 1.09 2 3.42 3.46 5.32 5.75 1.9 2.28 3.61 6.29 6.08 7.97 2.47 1.69 6.49 3.02 8.75 2.14 2.25-0.87 3.85-5.1 4.8-7.37 0.94-2.27 1-4.43 0.85-6.26-0.14-1.83-1.21-1.94-1.71-4.71s-0.5-2.04-1.29-11.91c-0.78-9.88-2.4-34.06-3.43-47.32-1.02-13.26-2.4-21.83-2.74-32.23s0.56-21.32 0.69-30.17c0.13-8.841-0.09-17.099 0.08-22.885s-1.32-8.784 0.95-11.827 8.57-4.673 12.68-6.43c4.12-1.758 8.23-3.027 12-4.113s10-1.373 10.63-2.402c0.63-1.028-4-2.74-6.86-3.769-2.85-1.028-4.11-3.316-10.28-2.401z"/>
 <path fill="#fff" d="m377.96 235.76c-0.93-3.62-1.56-4.99-1.49-15.35 0.06-10.35 1.62-27.87 1.87-46.77s-0.87-50.21-0.38-66.61c0.5-16.408 2.59-22.676 3.37-31.813s-0.47-18.554 1.31-23.013 5.99-4.398 9.36-3.743c3.36 0.655 8.88 4.023 10.85 7.672 1.96 3.649 0.22 8.794 0.94 14.221 0.71 5.426 1.37 10.29 3.36 18.335 2 8.046 5.62 18.401 8.61 29.941 2.99 11.53 7.61 32.12 9.36 39.29 1.74 7.17 0.31 7.8 1.12 3.74 0.81-4.05 3.24-19.96 3.74-28.06 0.5-8.11-0.94-14.1-0.75-20.59 0.19-6.48 1.94-12.35 1.87-18.334-0.06-5.987-2.71-8.7-2.24-17.588 0.46-8.887 2.15-28.783 5.05-35.737s9.04-5.8 12.35-5.987c3.3-0.187 6.08 0.965 7.48 4.864 1.41 3.898 1.34 11.009 0.94 18.524-0.41 7.516-2.59 16.03-3.37 26.57s-1.09 27.128-1.31 36.668c-0.22 9.55 0.59 12.48 0 20.59s-3.27 21.33-3.55 28.06c-0.28 6.74 1.3 4.31 1.87 12.35 0.56 8.05 1.31 26.7 1.49 35.93 0.19 9.23-0.31 15.15-0.37 19.46-0.06 4.3-0.44 4.27 0 6.36s4.18 5.36 2.62 6.18c-1.56 0.81-8.92 0.15-11.98-1.31-3.05-1.47-4.86-4.25-6.36-7.49-1.49-3.24-1.24-8.55-2.62-11.98-1.37-3.43-4.61-5.86-5.61-8.6-1-2.75 0.56-4.93-0.37-7.86-0.94-2.93-3.25-4.68-5.24-9.73-2-5.05-4.81-15.22-6.74-20.58-1.93-5.37-3.49-6.49-4.86-11.6-1.38-5.12-2.28-13.35-3.37-19.09-1.1-5.74-2.62-10.82-3.18-15.34-0.57-4.52 0.4-8.67-0.19-11.79s-2.68-9.08-3.37-6.92c-0.68 2.15-0.5 12.53-0.75 19.83s-0.43 11.98-0.74 23.95c-0.32 11.98-0.69 37.36-1.13 47.9-0.43 10.54-1.18 10.32-1.49 15.35-0.32 5.02-0.5 11.28-0.38 14.77 0.13 3.5 2.12 5.21 1.12 6.18-0.99 0.97-4.99 0.37-7.11-0.37-2.12-0.75-3.99-2.37-5.61-4.12s-3.18-2.74-4.12-6.36z"/>
 <path fill="#fff" d="m500.33 30.685c-8.2 1.809-17.31 4.398-20.95 6.363-3.65 1.965-0.63 2.371-0.94 5.427-0.31 3.057-0.53 8.452-0.94 12.911-0.4 4.459-0.93 10.228-1.49 13.845-0.56 3.618-1.69 1.621-1.87 7.859-0.19 6.237 0.99 16.591 0.74 29.56-0.25 12.98-1.55 33.12-2.24 48.28-0.69 15.15-1.68 31.24-1.87 42.66-0.19 11.41 0.62 20.14 0.75 25.82 0.12 5.68 0.5 6.18 0 8.23-0.5 2.06-3.25 2.59-3 4.12s1.69 3.87 4.5 5.05c2.8 1.19 8.73 2.28 12.34 2.06 3.62-0.22 4.24-1.97 9.36-3.37 5.11-1.4 15.28-3.68 21.33-5.05s14.16-1.97 14.97-3.18c0.81-1.22-6.05-3.31-10.1-4.12-4.06-0.81-8.61-1.06-14.22-0.75-5.62 0.32-16.16 3.56-19.46 2.62-3.31-0.93-0.69-1.24-0.38-8.23s1.87-24.51 2.24-33.68c0.38-9.17-0.49-14.66 0-21.33 0.5-6.67 2.31-13.72 3-18.71s-2.18-8.55 1.12-11.23c3.31-2.68 13.85-3.43 18.71-4.86 4.87-1.44 6.24-2.87 10.48-3.74 4.24-0.88 13.16-0.57 14.97-1.5 1.81-0.94-2.62-3.12-4.12-4.12-1.49-1-2.49-1.31-4.86-1.87s-3.8-2.06-9.36-1.5c-5.55 0.57-19.77 5.68-23.95 4.87-4.17-0.81-0.93-3.43-1.12-9.73s-0.25-21.705 0-28.067 1.09-5.209 1.5-10.105c0.4-4.896 0.5-14.221 0.93-19.273 0.44-5.052-0.84-8.201 1.69-11.039 2.52-2.838 8.04-4.179 13.47-5.987s14.38-4.396 19.09-4.864c4.7-0.467 7.01 2.526 9.16 2.058s5.61-3.213 3.74-4.866-7.76-4.959-14.96-5.052c-7.21-0.094-20.06 2.682-28.26 4.49"/>
 <path fill="#fff" d="m573.68 3.1807c-2.12-0.6238-3.27-0.5621-5.43 0.1863-2.15 0.7485-5.58 1.2481-7.48 4.3045-1.9 3.0565-2.87 10.636-3.93 14.034-1.06 3.399-1.9 3.366-2.43 6.359-0.53 2.994-1.78 8.358-0.75 11.601s4.68 6.424 6.92 7.859c2.25 1.434 4.77 2.528 6.55 0.75 1.78-1.777 3.34-8.452 4.12-11.415 0.77-2.962-0.35-2.214 0.56-6.362 0.9-4.148 3.3-14.97 4.86-18.525 1.56-3.5548 3.78-1.9949 4.49-2.8055 0.72-0.8105 1.06-1.0599-0.18-2.0577-1.25-0.9978-5.18-3.3053-7.3-3.9291"/>
 <path fill="#fff" d="m614.47 35.552c-4.62-0.874-13-2.496-17.96-2.247s-8.61 1.559-11.79 3.743c-3.18 2.183-6.33 4.117-7.3 9.357-0.96 5.239-0.56 15.155 1.5 22.078s7.48 11.976 10.85 19.46 6.74 15.217 9.36 25.447 5.36 24.51 6.36 35.93c1 11.41 1.12 23.7-0.37 32.55-1.5 8.86-5 15.03-8.61 20.58-3.62 5.56-9.3 10.36-13.1 12.73s-6.55 3.62-9.73 1.5c-3.18-2.13-7.42-8.67-9.35-14.23-1.94-5.55-0.44-15.15-2.25-19.08s-5.93-3.93-8.61-4.49-5.61-0.19-7.48 1.12-3.5 4.46-3.75 6.74c-0.24 2.27 1.6 4.39 2.25 6.92 0.66 2.53-0.18 4.27 1.69 8.23s5.33 11.26 9.54 15.53c4.21 4.28 9.73 8.11 15.72 10.11 5.98 1.99 14.72 2.12 20.2 1.87 5.49-0.25 8.92-1.5 12.73-3.37 3.8-1.87 6.86-4.93 10.1-7.86s6.86-5.86 9.35-9.73c2.5-3.87 4.56-8.14 5.62-13.47s0.93-12.6 0.75-18.52c-0.19-5.93-0.88-10.33-1.87-17.03-1-6.71-2.25-14.16-4.12-23.2-1.87-9.05-4.24-21.83-7.11-31.06-2.87-9.235-7.42-17.716-10.11-24.327-2.68-6.612-4.98-10.292-5.98-15.344s-1-11.164 0-14.969c1-3.804 3.05-7.172 5.98-7.858 2.94-0.686 7.12 3.119 11.61 3.743 4.49 0.623 14.4 1.309 15.34 0 0.94-1.31-6.49-6.05-9.73-7.859-3.24-1.808-5.11-2.121-9.73-2.994z"/>
 <path fill="#fff" d="m742.61 52.763c-4.57-1.281-8.49-1.709-14.47 0s-14.62 4.473-21.41 10.252c-6.78 5.779-13.86 16.232-19.29 24.422-5.43 8.191-10 15.833-13.27 24.723s-5.93 19.25-6.33 28.64c-0.4 9.4 1.56 19.55 3.92 27.74s5.33 14.27 10.25 21.41c4.93 7.13 11.94 15.78 19.3 21.41 7.36 5.62 17.23 9.52 24.87 12.36s15.3 3.94 20.96 4.67c5.65 0.73 11.63 0.58 12.96-0.3s-2.39-2.99-4.97-4.98c-2.59-1.98-7.97-5.62-10.56-6.93s-3.31-0.45-4.97-0.91c-1.66-0.45-2.59-1.23-4.98-1.8-2.39-0.58-5.2 1.8-9.34-1.66-4.15-3.47-11.49-13.14-15.53-19.15-4.05-6-6.48-11.55-8.74-16.88-2.27-5.33-3.57-10.76-4.83-15.08s-2.71-5.52-2.71-10.85 1.2-14.27 2.71-21.11c1.51-6.83 2.96-12.81 6.33-19.9 3.37-7.08 8.75-16.027 13.87-22.61 5.13-6.583 12.01-13.166 16.88-16.884 4.88-3.719 9.13-4.473 12.37-5.428s5.43 0.276 7.08-0.302c1.66-0.578 4.55-1.357 2.87-3.165-1.69-1.809-8.39-6.407-12.97-7.688z"/>
 <path d="m818.44 30.303c-1.83-0.226-6.53-0.855-8.44 2.412-1.91 3.266-1.06 8.317-3.02 17.186s-6.3 25.577-8.74 36.029-3.74 17.54-5.88 26.69c-2.13 9.14-5.32 20.67-6.93 28.18-1.61 7.52-2.24 13.19-2.72 16.89-0.47 3.69 1.16 3.89-0.15 5.28-1.3 1.38-7.33 1.13-7.69 3.01-0.35 1.88 4.6 4.87 5.58 8.29s0.45 6.46 0.3 12.21c-0.15 5.76-0.77 17.44-1.2 22.32-0.43 4.87-0.81 3.66-1.36 6.93s-1.41 9.72-1.96 12.66-1.63 2.87-1.36 4.98c0.28 2.11 0.51 5.2 3.02 7.69 2.51 2.48 9.62 6.2 12.06 7.23s2.41-0.32 2.56-1.05-2.06-0.98-1.66-3.32c0.41-2.34 2.97-7.21 4.07-10.7 1.11-3.5 1.59-6.03 2.57-10.25s2.58-11.16 3.31-15.08 0.48-5.91 1.06-8.44c0.58-2.54 1.96-4.17 2.41-6.79 0.45-2.61 0-6.43 0.3-8.89s0.76-3.99 1.51-5.88c0.76-1.88-0.23-3.62 3.01-5.43 3.25-1.81 13.2-6.66 16.44-5.43 3.24 1.24 2.23 6.82 3.01 12.82 0.78 6.01 1.26 17.31 1.66 23.22 0.4 5.9 0.48 8.29 0.76 12.21 0.27 3.92 0.32 7.69 0.9 11.3 0.58 3.62 0.07 7.84 2.56 10.41 2.49 2.56 8.92 4.37 12.36 4.97 3.45 0.6 6.96 0.55 8.3-1.36 1.33-1.91 0-2.91-0.31-10.1-0.3-7.18-0.85-22.23-1.5-33.01-0.66-10.78-1.46-23.07-2.42-31.66-0.95-8.59-2.16-13.42-3.31-19.9-1.16-6.48-2.36-12.96-3.62-18.99s-2.86-11.96-3.92-17.19c-1.05-5.23-1.71-7.94-2.41-14.172-0.71-6.231-1.16-16.883-1.81-23.215s-1.56-10.251-2.11-14.774-1.16-9.799-1.21-12.362 1.96-1.207 0.91-3.016c-1.06-1.809-5.13-6.003-7.24-7.837-2.11-1.835-4.62-3.219-5.43-3.168-0.8 0.05 0.76-0.325 0.61 3.469-0.15 3.795-1.19 9.272-1.51 19.297-0.33 10.025-0.86 33.265-0.45 40.853 0.4 7.585 2.06-1.029 2.86 4.675 0.8 5.7 1.41 21.56 1.96 29.55s3.74 14.29 1.36 18.39c-2.39 4.09-12.87 6.91-15.68 6.18s-1.61-4.55-1.21-10.55c0.41-6.01 2.44-18.47 3.62-25.48s2.26-12.26 3.47-16.58c1.21-4.325 3.09 0.45 3.77-9.35s0.05-39.851 0.3-49.449 1.43-6.155 1.21-8.139c-0.23-1.985-0.73-3.543-2.57-3.769" stroke="#fff" stroke-width="2.1345px" fill="#fff"/>
 <path d="m887.94 28.038c-3.04 0.252-10.23 2.79-12.21 6.483-1.99 3.694-0.08 6.258 0.3 15.68 0.37 9.422 1.98 28.215 1.96 40.853-0.03 12.636-1.76 24.876-2.11 34.976s0.55 15.93 0 25.63-2.41 24.24-3.32 32.56c-0.9 8.32-1.31 10.28-2.11 17.34s-2.19 18.99-2.71 25.02c-0.53 6.03-4.12 8.44-0.45 11.16 3.66 2.71 18.29 6.78 22.46 5.12s1.25-4.95 2.56-15.07c1.31-10.13 3.95-33.24 5.28-45.68s1.93-21.36 2.71-28.95c0.78-7.58-1.25-12.03 1.96-16.58 3.22-4.55 11.56-6.41 17.34-10.7 5.78-4.3 12.38-9.02 17.33-15.08 4.95-6.05 9.33-15.323 12.37-21.252 3.04-5.93 5.9-8.394 5.88-14.323-0.03-5.93-3.35-15.802-6.03-21.255-2.69-5.452-5.33-8.042-10.11-11.459-4.77-3.417-11.86-6.809-18.54-9.045s-16.13-3.493-21.56-4.372c-5.42-0.88-11.4-2.838-11-0.903 0.4 1.934 9.25 10.677 13.42 12.511 4.17 1.835 8.09-1.958 11.61-1.506 3.51 0.452 6.53 0.904 9.49 4.22 2.97 3.317 6.86 10.401 8.29 15.678 1.43 5.276 1.59 10.277 0.3 15.981-1.28 5.704-5.22 13.217-7.99 18.242-2.76 5.025-5.95 8.563-8.59 11.903-2.64 3.35-5.38 6.89-7.23 8.15-1.86 1.25-3.07 1.15-3.92-0.61-0.86-1.76-1.16-5.73-1.21-9.95-0.05-4.218 0.9-10.599 0.9-15.373 0-4.773-0.9-9.247-0.9-13.267s1.08-7.16 0.9-10.853c-0.17-3.694-1.8-7.689-1.96-11.307-0.15-3.619 1.54-7.915 1.06-10.402s-2.56-3.09-3.92-4.522c-1.36-1.433-2.51-2.563-4.22-4.071s-2.99-5.228-6.03-4.977" stroke="#fff" stroke-width="1.9933px" fill="#fff"/>
 <path d="m306.78 54.27c-1.65 2.035-4.9 8.066-6.78 14.322-1.89 6.257-3.19 15.377-4.52 23.216s-2.36 16.232-3.47 23.822c-1.11 7.58-2.19 14.95-3.17 21.71-0.98 6.75-2.26 10.8-2.71 18.84s-0.53 21.38 0 29.4c0.53 8.01 1.43 12.58 3.17 18.69 1.73 6.11 4.64 13.06 7.23 17.94 2.59 4.87 4.5 8.77 8.29 11.31 3.8 2.53 9.4 3.62 14.48 3.92 5.07 0.3 11.9-0.63 15.98-2.12 4.07-1.48 5.9-3.26 8.44-6.78 2.54-3.51 4.95-9.47 6.78-14.32s3.24-10.28 4.22-14.77c0.98-4.5 1.61-6.36 1.66-12.21 0.05-5.86-0.63-16.23-1.35-22.92-0.73-6.68-1.64-9.12-3.02-17.18-1.38-8.07-3.29-21.54-5.28-31.21-1.98-9.68-3.99-18.118-6.63-26.836-2.64-8.719-7.01-19.75-9.2-25.478-2.18-5.728-2.01-6.757-3.92-8.892-1.91-2.136-5.02-3.369-7.53-3.922-2.52-0.553-5.61 0.152-7.54 0.604s-3.94 0.779-4.07 2.11c-0.13 1.332 1.35 1.834 3.31 5.88 1.96 4.045 6.71 11.836 8.45 18.393 1.73 6.558 0.93 16.129 1.96 20.953 1.03 4.828 2.89 2.688 4.22 7.988 1.33 5.31 2.39 15.28 3.77 23.82 1.38 8.55 3.47 18.62 4.52 27.44 1.06 8.82 2.11 18.29 1.81 25.48-0.3 7.18-1.66 11.33-3.62 17.63-1.96 6.31-5.55 15.66-8.14 20.21-2.59 4.54-5.33 6.68-7.39 7.08s-3.44-0.88-4.97-4.67c-1.53-3.8-3.22-12.01-4.22-18.09-1.01-6.08-1.89-10.45-1.81-18.39 0.07-7.94 1.28-21.06 2.26-29.25s2.46-12.79 3.62-19.9c1.15-7.11 2.33-17.04 3.31-22.77 0.98-5.72 1.54-8.76 2.57-11.6s3.01-2.51 3.61-5.429c0.61-2.915 0.56-7.84 0-12.061-0.55-4.221-1.45-8.29-3.31-13.265-1.86-4.974-6.01-13.467-7.84-16.583-1.83-3.115-1.51-4.147-3.17-2.112z" stroke="#fff" stroke-width="1.8794px" fill="#fff"/>
</svg>
